PathFileType	4	(X/Y/Z)	Patient4_TMGait_0pt3_03_right_14.trc.trc
DataRate	CameraRate	NumFrames	NumMarkers	Units	OrigDataRate	OrigDataStartFrame	OrigNumFrames
55.118110236220	55.118110236220	4	33	mm	55.118110236220	106	       141
Frame#	Time	Sacral			L.Shoulder			Chest			R.Shoulder			Neck			R.ASIS			L.ASIS			R.Thigh.Superior			R.Thigh.Lateral			R.Thigh.Inferior			R.Patella			L.Thigh.Superior			L.Thigh.Lateral			L.Thigh.Inferior			L.Patella			L.Shank.Superior			L.Shank.Lateral			L.Shank.Inferior			R.Shank.Superior			R.Shank.Lateral			R.Shank.Inferior			R.Heel			R.Midfoot.Superior			R.Midfoot.Lateral			R.Toe			L.Heel			L.Midfoot.Lateral			L.Midfoot.Superior			L.Toe			L.Elbow			L.Wrist			R.Elbow			R.Wrist			
		X1	Y1	Z1	X2	Y2	Z2	X3	Y3	Z3	X4	Y4	Z4	X5	Y5	Z5	X6	Y6	Z6	X7	Y7	Z7	X8	Y8	Z8	X9	Y9	Z9	X10	Y10	Z10	X11	Y11	Z11	X12	Y12	Z12	X13	Y13	Z13	X14	Y14	Z14	X15	Y15	Z15	X16	Y16	Z16	X17	Y17	Z17	X18	Y18	Z18	X19	Y19	Z19	X20	Y20	Z20	X21	Y21	Z21	X22	Y22	Z22	X23	Y23	Z23	X24	Y24	Z24	X25	Y25	Z25	X26	Y26	Z26	X27	Y27	Z27	X28	Y28	Z28	X29	Y29	Z29	X30	Y30	Z30	X31	Y31	Z31	X32	Y32	Z32	X33	Y33	Z33	

106	28.385000000000	649.556957877041	1006.745213214832	404.762392959293	854.629544489872	1417.615566391430	197.697165327302	959.411474366734	1347.671734736502	356.339545450332	890.706777844880	1433.641820171653	531.394145507851	849.490538564841	1484.805899150788	360.529359665387	880.811000476486	934.935011930231	514.903419231297	857.779426777498	947.121299990557	242.496831348915	947.235543581709	756.380040428734	486.764031169530	901.498090872044	640.585170043451	566.715330211074	982.729764514899	592.246234172412	482.826498425535	994.317832430840	481.293495932963	509.933477001806	916.278430043880	745.702270989410	274.563766532613	835.557578870624	621.819908637940	224.527414160063	929.546066481303	553.084053381250	286.550462278550	935.192733583641	479.920463373070	296.178109584849	897.948102891442	406.126027136001	293.891418918107	795.598639537054	299.250604136615	250.746139782010	836.991767963632	185.888550158771	322.658597480384	916.630769680020	410.392580922445	523.786962095043	795.568037732556	374.404696783935	587.895013281923	781.429948517721	262.142185710634	545.170747188369	579.377068198175	197.081503291479	521.324961212158	749.953750741750	145.343513096507	568.106080213026	639.627663358452	143.823646835689	598.858450850664	817.109650341053	36.020678761801	600.557880819790	698.239964454933	38.761649583573	377.805527109889	764.927455703060	35.157858584594	291.167968649673	851.452004189801	94.808443336882	311.380475704025	976.335065438525	40.252181376075	270.575003519876	868.015073437425	1086.295397639384	40.302841407199	1058.794229084729	907.540230658026	12.616903993209	844.677226169553	1091.692476784448	663.122810468182	929.027052017171	845.687481100792	681.130418088386	
107	28.403142857143	647.484739785211	1007.899865273250	402.676760114949	856.406898016730	1418.248265285445	197.485623348406	959.088817371718	1348.061919941561	357.347458791783	888.298155041921	1433.895760322769	531.662379123294	849.470812723763	1485.357140763546	360.377097810003	877.934621319075	936.094726639691	514.840512891410	857.067467908240	947.442321033202	242.282615854560	946.092286470325	759.327449684111	486.330278727324	902.166331778836	643.166870412288	566.515486587767	983.835526739490	595.903402695796	482.542131451380	997.636434683623	485.516832361187	509.764347369591	913.709237983290	745.152123418481	274.318531623653	831.999772243298	621.972142080987	224.117932841063	925.196243833811	552.545284209316	286.556960315277	930.244624033059	479.575568873634	296.377399513030	892.936305419068	406.005885582806	293.911793678959	790.565141229616	299.247293738607	250.539004383490	831.654336803317	185.855281808077	322.606660693706	921.524706771116	413.061046532642	523.569861041595	801.322242527999	373.720521532383	587.083806694581	790.557952863620	261.243881537906	544.333851636662	590.748562676091	189.819151400144	519.878438033125	762.624608631436	144.181311741645	567.045351833394	652.545115330461	138.556861729670	597.410334930107	833.206790796795	36.989812626387	599.212013675654	692.692388276995	38.774995942920	377.733211000368	759.444545011458	35.135467097718	291.105073054259	845.973901745413	94.774743889488	311.329151854974	970.869926184112	40.189682383351	270.569793205040	875.326574061379	1087.307317293682	40.324559607492	1074.652678458229	917.743192598639	16.125441300219	829.663461130828	1093.187689620927	661.049534025886	896.610773579310	841.705784805221	681.107028516946	
108	28.421285714286	645.568125328286	1009.283367583080	400.803705809544	858.311649220751	1419.099873231228	197.599151597300	958.854687808212	1348.649051849204	358.651744752488	885.993404521359	1434.398258547074	532.171247734801	849.529714702081	1486.092344428557	360.545909395931	875.057300946548	937.357956402172	514.961836261230	856.445365080390	947.943240767977	242.301182600695	944.461150782344	762.064841487106	486.297536464510	901.929370879745	645.679930895706	566.667166865496	983.923048049631	599.289395093295	482.678782496900	999.850378861472	489.803471084787	510.018216021085	910.943589052822	744.666513573281	274.291933195967	828.125223453734	622.292303614668	223.826243601662	920.424444195169	552.073902960363	286.668126087885	924.803638707269	479.346953416752	296.644938557030	887.522690639572	406.036172592605	293.965374540804	785.219246790211	299.308738463401	250.370674163221	826.153426479270	185.900956935524	322.555793930921	925.895344037806	415.626848490140	523.771798276285	807.144665804783	371.983574455383	586.786930149360	800.675536904612	259.375351797074	543.937890025532	604.046868693901	179.881962826154	518.953676504972	777.306347301670	142.002499668883	566.381987436437	667.792842449062	131.290158870164	596.471269348478	852.202980137447	38.092393615514	598.284319421734	687.135436440077	38.784988088879	377.666235441907	753.950621744737	35.109799892266	291.041507972537	840.479698799026	94.753244837511	311.264087732888	965.392878052566	40.152405616611	270.565764656872	882.352777346458	1088.677850390792	40.619130076013	1089.707212691185	928.749184864387	20.147093146898	814.673426306490	1095.516549303271	659.224692527303	865.176040902596	840.073506494483	680.866539890689	
109	28.439428571429	643.805061414571	1010.833300033177	399.137011267614	860.351712451989	1420.097539811232	198.021669377888	958.698245498839	1349.370671285474	360.251963346938	883.782113157710	1435.118171740474	532.903413756188	849.661891707549	1486.960038794410	361.005146752798	872.169502484528	938.667503832075	515.303640776214	855.915475505250	948.578615312676	242.571394863073	942.347870724651	764.524383792946	486.678760743007	900.794856162729	648.028038849128	567.170526975805	983.022107841021	602.303714940696	483.235334149833	1000.960796974570	494.050767992049	510.684475929484	908.013681271420	744.230282095306	274.493462432526	823.991789810154	622.754788690504	223.660958778029	915.296182828448	551.658785392178	286.892360601492	918.944430965021	479.217484737952	296.984620675905	881.769753358007	406.196611921266	294.057002369256	779.607313281730	299.428414032562	250.249404403167	820.517510243360	186.013898984643	322.512423553678	929.741929173577	418.053907809856	524.371303784528	813.082110929086	369.292536338244	586.987972107513	811.749583506268	256.714197292549	543.977760497753	619.338502440937	167.753270618123	518.501952834756	793.868110121143	139.032980107139	566.120528350361	685.298773887523	122.454713364488	596.023280582491	873.742680960946	39.447311904885	597.840783525950	681.576729519397	38.792360480620	377.606877176472	748.448304041461	35.082958688356	290.980304087292	834.975032469273	94.741659334531	311.191205994021	959.907067410827	40.133778700658	270.563530905453	889.087601480082	1090.343508932895	41.121518553935	1103.875195175052	940.414697868392	24.582685674375	799.862693876418	1098.658203881959	657.710064067197	835.189753435012	840.568939156199	680.495110503839	
